<svg data-v-423bf9ae="" xmlns="http://www.w3.org/2000/svg" viewBox="0 0 615 101" class="iconLeft"><!----><!----><!----><g data-v-423bf9ae="" id="3e7d6d2a-821a-446f-b709-ec49e53998d7" fill="white" transform="matrix(4.60829496383667,0,0,4.60829496383667,120.83465576171875,2.8314881324768066)"><path d="M6.71 13.30L6.89 12.39L2.21 12.39L2.87 9.00L7.41 9.00L7.59 8.08L3.05 8.08L3.71 4.69L8.39 4.69L8.55 3.78L2.90 3.78L1.05 13.30ZM9.87 12.42C9.66 12.25 9.53 11.98 9.51 11.58L8.47 11.58C8.44 12.85 9.13 13.48 10.56 13.48C10.89 13.48 11.20 13.45 11.51 13.37C11.82 13.29 12.11 13.16 12.38 13.01C12.91 12.68 13.24 12.19 13.37 11.54C13.50 10.88 13.27 10.40 12.70 10.09C12.45 9.97 12.18 9.86 11.89 9.79C11.59 9.72 11.30 9.65 11.05 9.56C10.79 9.48 10.58 9.37 10.43 9.24C10.28 9.11 10.22 8.90 10.28 8.62C10.33 8.34 10.47 8.15 10.72 8.01C10.96 7.88 11.24 7.81 11.55 7.81C11.86 7.81 12.10 7.87 12.29 7.98C12.49 8.09 12.60 8.32 12.64 8.67L13.69 8.67C13.68 8.05 13.51 7.60 13.16 7.36C12.81 7.11 12.32 7.00 11.73 7.00C11.13 7.00 10.60 7.15 10.11 7.48C9.62 7.78 9.30 8.25 9.18 8.86C9.13 9.17 9.16 9.44 9.27 9.66C9.38 9.88 9.59 10.08 9.88 10.22C10.14 10.35 10.40 10.44 10.70 10.51C10.99 10.58 11.27 10.68 11.52 10.77C12.12 10.98 12.39 11.27 12.32 11.66C12.19 12.33 11.66 12.67 10.77 12.67C10.37 12.67 10.08 12.59 9.87 12.42ZM14.73 16.80L15.62 12.25L15.75 12.46C16.20 13.12 16.86 13.44 17.71 13.44C18.56 13.44 19.33 13.12 20.05 12.46C20.73 11.83 21.17 11.07 21.34 10.22C21.50 9.37 21.36 8.61 20.92 7.98C20.47 7.32 19.81 7.00 18.96 7.00C18.10 7.00 17.33 7.32 16.62 7.98L16.41 8.19L16.62 7.14L15.64 7.14L13.75 16.80ZM20.36 10.22C20.24 10.82 19.92 11.34 19.42 11.79C18.91 12.24 18.37 12.46 17.75 12.46C17.14 12.46 16.66 12.24 16.32 11.79C16.00 11.34 15.90 10.82 16.02 10.22C16.13 9.62 16.44 9.10 16.94 8.65C17.44 8.20 18.00 7.98 18.62 7.98C19.24 7.98 19.70 8.20 20.03 8.65C20.36 9.10 20.47 9.62 20.36 10.22ZM29.06 10.08C29.23 9.23 29.05 8.50 28.52 7.88C28 7.28 27.31 6.97 26.45 6.97C25.56 6.97 24.74 7.29 23.98 7.92C23.23 8.55 22.76 9.31 22.60 10.19C22.43 11.09 22.60 11.84 23.10 12.46C23.34 12.75 23.65 12.98 24.00 13.15C24.35 13.31 24.79 13.40 25.34 13.40C25.89 13.40 26.46 13.22 27.05 12.88C27.64 12.54 28.13 12.08 28.50 11.49L27.38 11.49C27.12 11.79 26.80 12.01 26.45 12.18C26.10 12.35 25.73 12.42 25.38 12.42C24.85 12.42 24.42 12.25 24.05 11.90C23.70 11.56 23.53 11.13 23.55 10.60L28.97 10.60ZM28.08 9.76L23.72 9.76C23.83 9.49 23.97 9.27 24.15 9.04C24.75 8.32 25.45 7.95 26.25 7.95C26.77 7.95 27.22 8.12 27.55 8.46C27.90 8.81 28.07 9.24 28.08 9.76ZM34.16 8.41L34.41 7.14C34.23 7.06 34.02 7.01 33.81 7.01C33.12 7.01 32.54 7.39 32.06 8.16L31.98 8.41L32.23 7.14L31.25 7.14L30.04 13.30L31.02 13.30L31.63 10.22C31.72 9.72 31.93 9.25 32.24 8.85C32.41 8.64 32.59 8.46 32.80 8.32C33.01 8.18 33.25 8.11 33.50 8.11C33.75 8.11 33.98 8.20 34.16 8.41ZM39.90 10.22C39.79 10.82 39.47 11.34 38.96 11.79C38.46 12.24 37.91 12.46 37.30 12.46C36.68 12.46 36.20 12.24 35.87 11.79C35.55 11.34 35.45 10.82 35.56 10.22C35.67 9.62 35.98 9.10 36.48 8.65C36.99 8.20 37.55 7.98 38.16 7.98C38.78 7.98 39.24 8.20 39.58 8.65C39.90 9.10 40.01 9.62 39.90 10.22ZM40.28 13.30L41.48 7.14L40.50 7.14L40.29 8.19C40.25 8.12 40.19 8.05 40.15 7.98C39.70 7.32 39.05 7.00 38.19 7.00C37.34 7.00 36.57 7.32 35.85 7.98C35.17 8.61 34.75 9.37 34.58 10.22C34.41 11.07 34.54 11.83 34.99 12.46C35.43 13.12 36.09 13.44 36.95 13.44C37.80 13.44 38.57 13.12 39.28 12.46C39.35 12.39 39.44 12.32 39.51 12.25L39.30 13.30ZM46.63 13.30L47.61 13.30L48.36 9.45C48.50 8.74 48.43 8.16 48.13 7.73C47.99 7.50 47.81 7.32 47.56 7.20C47.31 7.07 46.96 7.01 46.52 7.01C46.09 7.01 45.68 7.14 45.30 7.36C44.94 7.57 44.62 7.85 44.35 8.20L44.56 7.14L43.58 7.14L42.38 13.30L43.36 13.30L43.86 10.72C44.02 9.94 44.28 9.31 44.66 8.85C44.87 8.60 45.12 8.39 45.42 8.23C45.71 8.08 46.07 7.99 46.49 7.99C46.91 7.99 47.18 8.15 47.31 8.43C47.43 8.71 47.46 9.04 47.38 9.45ZM49.76 8.05L51.30 8.05L50.27 13.30L51.25 13.30L52.28 8.05L53.80 8.05L53.98 7.14L52.46 7.14L52.92 4.75L51.94 4.75L51.48 7.14L49.94 7.14ZM59.75 10.19C59.64 10.79 59.30 11.33 58.79 11.76C58.27 12.19 57.69 12.42 57.08 12.42C56.46 12.42 55.97 12.19 55.62 11.76C55.27 11.33 55.16 10.79 55.27 10.19C55.40 9.58 55.72 9.04 56.24 8.61C56.76 8.18 57.33 7.95 57.95 7.95C58.56 7.95 59.05 8.18 59.40 8.61C59.75 9.04 59.88 9.58 59.75 10.19ZM60.73 10.19C60.90 9.31 60.73 8.55 60.23 7.92C59.72 7.29 59.02 6.97 58.14 6.97C57.26 6.97 56.43 7.29 55.68 7.92C54.92 8.55 54.46 9.31 54.29 10.19C54.12 11.09 54.29 11.84 54.80 12.46C55.31 13.09 56.01 13.40 56.90 13.40C57.78 13.40 58.59 13.09 59.35 12.46C60.10 11.84 60.56 11.09 60.73 10.19ZM72.11 9.35C72.06 8.65 71.79 8.09 71.33 7.67C70.85 7.24 70.24 7.01 69.54 7.01C68.66 7.01 67.86 7.34 67.12 7.97C66.39 8.60 65.94 9.34 65.77 10.22C65.60 11.09 65.76 11.84 66.23 12.49C66.46 12.78 66.75 13.02 67.10 13.19C67.45 13.36 67.82 13.44 68.21 13.44C68.60 13.44 68.96 13.38 69.29 13.27C70.34 12.92 71.13 12.26 71.68 11.28L70.57 11.28C70.32 11.63 70.01 11.90 69.64 12.11C69.26 12.32 68.88 12.42 68.49 12.42C67.89 12.42 67.44 12.21 67.10 11.77C66.77 11.34 66.67 10.82 66.78 10.22C66.89 9.63 67.20 9.13 67.70 8.69C67.93 8.50 68.19 8.33 68.47 8.22C68.75 8.11 69.08 8.04 69.44 8.04C69.80 8.04 70.14 8.16 70.45 8.40C70.76 8.64 70.95 8.96 71.05 9.35ZM79.53 10.08C79.70 9.23 79.52 8.50 78.99 7.88C78.47 7.28 77.78 6.97 76.92 6.97C76.03 6.97 75.21 7.29 74.45 7.92C73.70 8.55 73.23 9.31 73.07 10.19C72.90 11.09 73.07 11.84 73.57 12.46C73.81 12.75 74.12 12.98 74.47 13.15C74.82 13.31 75.26 13.40 75.81 13.40C76.36 13.40 76.93 13.22 77.52 12.88C78.11 12.54 78.60 12.08 78.97 11.49L77.85 11.49C77.59 11.79 77.27 12.01 76.92 12.18C76.57 12.35 76.20 12.42 75.85 12.42C75.32 12.42 74.89 12.25 74.52 11.90C74.17 11.56 74.00 11.13 74.02 10.60L79.44 10.60ZM78.55 9.76L74.19 9.76C74.30 9.49 74.44 9.27 74.62 9.04C75.22 8.32 75.92 7.95 76.72 7.95C77.24 7.95 77.69 8.12 78.02 8.46C78.37 8.81 78.54 9.24 78.55 9.76ZM84.77 13.30L85.75 13.30L86.49 9.45C86.63 8.74 86.56 8.16 86.27 7.73C86.13 7.50 85.95 7.32 85.69 7.20C85.44 7.07 85.09 7.01 84.66 7.01C84.22 7.01 83.82 7.14 83.44 7.36C83.08 7.57 82.75 7.85 82.49 8.20L82.70 7.14L81.72 7.14L80.51 13.30L81.49 13.30L82.00 10.72C82.15 9.94 82.42 9.31 82.80 8.85C83.01 8.60 83.26 8.39 83.55 8.23C83.85 8.08 84.21 7.99 84.63 7.99C85.05 7.99 85.32 8.15 85.44 8.43C85.57 8.71 85.60 9.04 85.51 9.45ZM87.89 8.05L89.43 8.05L88.41 13.30L89.39 13.30L90.41 8.05L91.94 8.05L92.12 7.14L90.59 7.14L91.06 4.75L90.08 4.75L89.61 7.14L88.07 7.14ZM96.36 8.41L96.61 7.14C96.43 7.06 96.22 7.01 96.01 7.01C95.33 7.01 94.74 7.39 94.26 8.16L94.18 8.41L94.43 7.14L93.45 7.14L92.25 13.30L93.23 13.30L93.83 10.22C93.93 9.72 94.14 9.25 94.44 8.85C94.61 8.64 94.79 8.46 95.00 8.32C95.21 8.18 95.45 8.11 95.70 8.11C95.96 8.11 96.18 8.20 96.36 8.41ZM102.24 10.19C102.13 10.79 101.79 11.33 101.28 11.76C100.76 12.19 100.18 12.42 99.57 12.42C98.95 12.42 98.46 12.19 98.11 11.76C97.76 11.33 97.65 10.79 97.76 10.19C97.89 9.58 98.21 9.04 98.73 8.61C99.25 8.18 99.82 7.95 100.44 7.95C101.05 7.95 101.54 8.18 101.89 8.61C102.24 9.04 102.37 9.58 102.24 10.19ZM103.22 10.19C103.39 9.31 103.22 8.55 102.72 7.92C102.21 7.29 101.51 6.97 100.63 6.97C99.75 6.97 98.92 7.29 98.17 7.92C97.41 8.55 96.95 9.31 96.78 10.19C96.61 11.09 96.78 11.84 97.29 12.46C97.80 13.09 98.50 13.40 99.39 13.40C100.27 13.40 101.08 13.09 101.84 12.46C102.59 11.84 103.05 11.09 103.22 10.19ZM107.09 5.46C107.11 5.28 107.09 5.14 106.99 5.01C106.89 4.89 106.76 4.83 106.58 4.83C106.40 4.83 106.23 4.89 106.09 5.01C105.95 5.14 105.85 5.28 105.83 5.46C105.80 5.64 105.83 5.78 105.92 5.91C106.02 6.03 106.15 6.09 106.33 6.09C106.51 6.09 106.68 6.03 106.82 5.91C106.96 5.78 107.06 5.64 107.09 5.46ZM105.20 14.48L106.62 7.14L105.64 7.14L104.20 14.49C104.08 15.18 103.80 15.60 103.36 15.75C103.18 15.82 103.03 15.83 102.86 15.79C102.69 15.75 102.56 15.67 102.47 15.55L102.28 16.49C102.45 16.62 102.68 16.69 102.96 16.70C103.24 16.72 103.53 16.66 103.82 16.52C104.12 16.38 104.38 16.14 104.64 15.82C104.89 15.50 105.08 15.05 105.20 14.48Z"></path></g><!----><g data-v-423bf9ae="" id="6c3e7df5-a5fc-4a31-9085-8a86425ddeaa" transform="matrix(1.0567333698272705,0,0,1.0567333698272705,0.1633315086364746,0.7491565942764282)" stroke="none" fill="white"><path d="M80.901 95.106L50 72.654 19.099 95.106l11.803-36.327L0 36.327h38.196L50 0l11.804 36.327H100L69.099 58.779l11.802 36.327zM50 67.706l23.286 16.918-8.894-27.374 23.286-16.919H58.895L50 12.956l-8.895 27.375H12.322L35.608 57.25l-8.895 27.374L50 67.706z"></path></g><!----></svg>